<?xml version="1.0" standalone="no"?>
<!DOCTYPE svg PUBLIC "-//W3C//DTD SVG 20010904//EN"
 "http://www.w3.org/TR/2001/REC-SVG-20010904/DTD/svg10.dtd">
<svg version="1.0" xmlns="http://www.w3.org/2000/svg"
 width="11902.000000pt" height="12742.000000pt" viewBox="0 0 11902.000000 12742.000000"
 preserveAspectRatio="xMidYMid meet">

<g transform="translate(0.000000,12742.000000) scale(0.100000,-0.100000)"
fill="#fff" stroke="none">
<path d="M82475 126509 c-1224 -75 -2345 -469 -3235 -1138 -206 -155 -364
-293 -570 -500 -204 -204 -341 -361 -493 -565 -869 -1165 -1243 -2655 -1077
-4286 148 -1446 731 -2931 1661 -4235 626 -878 1381 -1650 2259 -2309 1305
-980 2788 -1613 4275 -1825 347 -50 740 -81 1020 -81 l130 0 34 83 c133 319
383 742 623 1051 43 55 76 101 74 103 -1 2 -45 -5 -97 -16 -490 -100 -1116
-125 -1688 -65 -1367 142 -2758 739 -3926 1686 -462 375 -983 904 -1331 1353
-744 957 -1236 1996 -1458 3080 -142 693 -164 1395 -65 2035 136 883 490 1666
1041 2305 133 154 400 412 559 539 247 198 558 394 844 532 1541 742 3505 641
5334 -275 315 -158 526 -281 836 -486 1424 -942 2551 -2331 3123 -3850 543
-1443 574 -2906 87 -4140 -62 -158 -227 -493 -308 -626 -67 -111 -140 -222
-214 -326 -48 -68 -46 -73 27 -53 70 19 315 61 471 80 344 42 716 48 1059 15
101 -10 138 -10 146 -1 17 17 124 251 192 421 478 1188 557 2595 226 4024
-479 2076 -1785 4049 -3621 5474 -1456 1129 -3151 1824 -4823 1977 -331 30
-800 38 -1115 19z"/>
<path d="M101315 120094 c-789 -30 -1452 -119 -2150 -289 -2419 -588 -4379
-2023 -5313 -3890 -234 -469 -406 -981 -496 -1480 -25 -139 -59 -376 -54 -380
2 -1 68 -39 147 -84 440 -251 839 -568 1182 -938 l86 -92 -1 287 c0 385 26
628 100 967 281 1267 1145 2426 2413 3235 1083 691 2375 1092 3771 1171 235
13 912 7 1115 -11 1710 -147 3175 -729 4335 -1724 140 -120 472 -453 594 -596
905 -1061 1301 -2328 1125 -3599 -87 -623 -308 -1226 -655 -1779 -996 -1592
-2904 -2687 -5109 -2931 -362 -40 -473 -46 -945 -46 -472 0 -583 6 -945 46
-783 86 -1533 281 -2240 580 -216 91 -653 312 -847 428 -540 323 -1041 722
-1398 1114 -63 69 -115 125 -116 124 -1 -1 3 -40 9 -87 6 -47 11 -242 11 -440
0 -380 -8 -500 -59 -808 -14 -85 -23 -158 -20 -163 10 -16 257 -191 430 -305
324 -213 596 -367 958 -544 954 -466 1995 -770 3097 -904 499 -61 872 -80
1430 -73 425 6 641 18 1005 57 2545 276 4803 1484 6095 3260 585 803 953 1718
1064 2640 40 332 49 775 21 1097 -116 1334 -728 2591 -1770 3638 -1384 1390
-3414 2286 -5615 2479 -368 33 -958 51 -1255 40z"/>
<path d="M87755 119851 c-564 -180 -1367 -495 -2105 -826 l-215 -96 -30 38
c-145 185 -352 332 -575 411 -515 180 -1092 3 -1416 -434 -235 -316 -304 -701
-199 -1109 5 -17 -26 -37 -217 -144 -487 -271 -1002 -586 -1413 -862 -347
-234 -341 -228 -170 -174 438 138 1087 386 1713 654 155 67 284 121 286 121 2
0 53 -49 113 -109 153 -153 290 -241 485 -309 247 -87 539 -90 794 -6 73 23
77 24 89 7 8 -10 803 -1030 1767 -2268 l1755 -2250 -138 -143 c-521 -538 -871
-1198 -1014 -1912 -54 -273 -69 -432 -69 -745 -1 -374 30 -634 112 -953 l29
-111 -61 -19 c-34 -10 -938 -306 -2009 -657 l-1948 -637 -36 43 c-67 82 -218
224 -308 292 -105 79 -298 178 -405 207 -93 26 -256 37 -330 21 -30 -6 -78
-22 -106 -35 l-51 -24 -169 170 c-196 196 -537 520 -739 700 -178 159 -418
359 -423 353 -6 -5 143 -221 300 -435 181 -247 408 -538 621 -794 231 -278
210 -248 197 -293 -51 -178 -19 -447 84 -690 91 -216 209 -386 396 -573 152
-152 264 -235 423 -310 150 -72 246 -95 387 -94 111 1 142 7 238 45 l32 13 93
-90 c232 -228 796 -724 822 -724 18 0 -328 484 -570 795 -81 105 -152 197
-158 206 -7 11 -4 32 11 71 61 164 52 391 -26 625 -16 46 -26 86 -23 88 3 2
841 276 1861 609 1020 334 1901 622 1957 641 l102 33 69 -142 c452 -935 1251
-1640 2231 -1966 587 -195 1230 -244 1851 -139 413 69 868 230 1227 433 l63
36 73 -113 c41 -61 551 -836 1135 -1720 584 -885 1062 -1612 1062 -1616 0 -4
-24 -28 -54 -54 -129 -111 -250 -302 -283 -444 l-17 -73 -56 -15 c-208 -59
-636 -190 -859 -265 -283 -93 -633 -221 -627 -228 6 -5 305 24 541 54 286 36
503 68 802 119 l261 44 79 -78 c139 -139 324 -207 588 -218 173 -7 307 8 483
53 234 59 458 165 638 300 98 73 252 237 294 312 19 34 42 75 51 90 14 25 33
32 175 71 390 106 925 274 1279 402 221 79 317 118 294 119 -58 1 -497 -49
-799 -91 -271 -38 -829 -130 -881 -145 -13 -3 -21 7 -33 42 -42 124 -147 232
-291 300 -157 74 -235 89 -480 88 -241 0 -325 -13 -548 -88 l-129 -42 -77 115
c-191 286 -2211 3350 -2211 3354 0 2 46 42 103 88 131 107 368 344 483 482
487 590 770 1255 866 2037 8 66 13 220 13 415 -1 262 -4 335 -23 473 -12 90
-25 174 -28 186 -5 21 94 52 2573 816 1418 436 2583 795 2590 798 6 2 36 -30
66 -70 193 -260 481 -440 807 -505 118 -24 365 -23 479 1 106 22 221 58 301
95 l64 28 169 -271 c211 -339 451 -701 637 -961 142 -198 327 -445 335 -445
10 0 -147 435 -253 700 -89 223 -287 680 -397 915 -59 127 -116 251 -127 277
l-20 47 43 49 c91 101 189 270 243 420 95 264 95 600 0 864 -160 444 -545 771
-1007 854 -82 15 -270 20 -416 11 -34 -2 -36 0 -109 123 -297 494 -574 926
-814 1269 -155 222 -402 556 -418 566 -5 3 11 -52 34 -122 155 -457 465 -1195
761 -1809 47 -98 85 -180 85 -183 0 -4 -36 -30 -80 -59 -168 -111 -331 -294
-428 -481 -89 -172 -134 -334 -148 -538 l-7 -102 -31 -10 c-17 -6 -1165 -359
-2551 -786 -1386 -427 -2532 -780 -2546 -784 -25 -9 -27 -6 -59 73 -94 236
-266 548 -418 763 -239 337 -565 664 -907 908 -490 350 -1070 580 -1675 665
-847 119 -1709 -50 -2459 -482 -86 -50 -105 -58 -116 -46 -26 27 -3518 4513
-3522 4524 -2 6 11 36 30 65 81 127 141 274 172 424 33 159 29 402 -10 550 -5
17 22 35 197 129 432 233 968 546 1353 789 268 170 652 426 700 469 15 13 -3
9 -130 -31z m3623 -7076 c1137 -141 2093 -874 2517 -1929 212 -529 276 -1115
184 -1676 -199 -1208 -1099 -2194 -2280 -2499 -317 -82 -531 -106 -882 -98
-174 4 -278 11 -371 26 -693 112 -1276 409 -1753 892 -189 191 -322 361 -450
574 -623 1034 -599 2329 62 3330 299 454 696 810 1176 1055 402 205 800 313
1269 344 102 7 407 -4 528 -19z"/>
<path d="M91040 111870 c37 -52 87 -172 106 -255 28 -119 24 -291 -9 -417
-117 -449 -513 -779 -934 -778 -121 0 -212 22 -318 74 -259 128 -407 397 -393
716 l5 104 -80 -84 c-320 -337 -519 -728 -598 -1175 -27 -152 -36 -438 -20
-597 107 -1020 877 -1820 1901 -1974 234 -36 561 -21 806 36 797 186 1423 789
1640 1579 98 359 100 781 5 1144 -235 899 -1007 1556 -1935 1646 -60 6 -129
11 -153 11 l-44 0 21 -30z"/>
<path d="M80570 111909 c-676 -40 -1325 -177 -1880 -396 -1299 -512 -2092
-1461 -2210 -2642 -13 -133 -13 -450 0 -582 74 -735 385 -1482 913 -2188 839
-1123 2147 -2065 3682 -2654 1593 -610 3273 -779 4700 -472 1342 289 2359 995
2804 1948 57 122 141 339 141 364 -1 13 -46 43 -151 102 -246 138 -508 320
-726 503 l-92 77 -5 -32 c-3 -18 -10 -66 -16 -107 -57 -382 -238 -783 -497
-1105 -106 -132 -311 -329 -453 -437 -558 -422 -1251 -671 -2125 -763 -206
-22 -714 -31 -945 -16 -1181 74 -2355 440 -3392 1057 -1670 996 -2659 2515
-2503 3846 61 527 282 988 660 1377 505 521 1236 862 2146 1000 460 70 1046
80 1554 25 1379 -148 2795 -726 3840 -1567 39 -32 72 -57 76 -57 3 0 1 37 -5
83 -16 143 -12 732 7 897 9 80 17 151 17 158 0 14 -157 118 -386 254 -1306
779 -2814 1247 -4284 1328 -211 11 -669 11 -870 -1z"/>
<path d="M95217 107105 c-161 -264 -371 -542 -586 -775 l-88 -95 466 0 c508 0
620 -7 1035 -66 1350 -191 2646 -748 3607 -1550 159 -133 432 -400 570 -557
631 -719 942 -1503 898 -2265 -52 -901 -619 -1679 -1579 -2166 -547 -278
-1191 -448 -1950 -513 -185 -16 -788 -16 -985 1 -1573 128 -3022 693 -4123
1608 -143 119 -519 492 -630 625 -216 260 -375 499 -511 768 -170 336 -265
630 -312 970 -18 123 -18 497 -1 615 48 336 168 664 345 947 37 58 67 108 67
110 0 2 -46 0 -102 -5 -157 -13 -719 -2 -878 17 -166 21 -405 60 -514 86 -61
14 -83 16 -88 7 -15 -23 -70 -174 -98 -268 -252 -849 -101 -1775 437 -2671
491 -818 1290 -1579 2275 -2166 1268 -755 2752 -1208 4268 -1302 343 -22 927
-12 1270 21 1362 129 2531 604 3278 1333 448 437 721 905 857 1469 85 352 97
771 34 1159 -192 1183 -1081 2383 -2439 3293 -919 616 -2014 1072 -3195 1329
-319 70 -852 151 -1115 171 -47 3 -94 8 -105 10 -16 3 -36 -21 -108 -140z"/>
<path d="M88137 101160 c-305 -4538 -1612 -9405 -3795 -14135 -289 -626 -763
-1596 -997 -2040 l-84 -160 -1 8198 0 8197 -3001 -2 -3001 -3 -7987 -18447
c-4393 -10146 -7989 -18449 -7992 -18452 -2 -2 -3599 8300 -7994 18450 l-7990
18454 -2997 0 -2998 0 0 -21105 0 -21105 -62 31 c-35 17 -132 73 -218 124
-2075 1242 -2855 3521 -2459 7185 128 1192 371 2536 813 4500 46 206 83 376
82 377 -7 8 -442 -842 -710 -1387 -1880 -3824 -2733 -7124 -2510 -9710 192
-2232 1178 -3953 2924 -5105 1414 -933 3307 -1486 5610 -1639 499 -34 730 -40
1380 -40 642 0 878 6 1435 39 2425 144 5111 645 7917 1475 3085 914 6174 2201
8958 3733 5499 3026 10661 7317 14861 12352 2935 3520 5348 7329 7146 11285
2198 4832 3449 9796 3718 14740 73 1359 73 2640 -1 4030 -24 462 -26 469 -47
160z m-36892 -37578 l1463 -4197 -66 -17 c-365 -95 -1378 -330 -1909 -443
-301 -65 -939 -195 -955 -195 -4 0 -8 2042 -7 4538 0 2495 3 4531 6 4524 3 -7
663 -1902 1468 -4210z"/>
<path d="M83227 76388 c-14 -24 -96 -169 -183 -323 -1791 -3177 -3995 -6225
-6573 -9090 -1085 -1205 -2347 -2485 -3519 -3570 l-162 -150 0 -15022 0
-15023 5235 0 5235 0 0 21610 c0 11886 -2 21610 -5 21610 -2 0 -15 -19 -28
-42z"/>
<path d="M70310 61103 c-1425 -1181 -3332 -2574 -4970 -3629 -2629 -1695
-5063 -2973 -7780 -4084 -697 -285 -1717 -670 -2315 -872 -66 -23 -122 -42
-123 -44 -2 -1 690 -1993 1538 -4426 849 -2433 1549 -4442 1557 -4465 l15 -43
3046 0 3047 0 3038 8718 c1672 4794 3061 8779 3087 8855 27 75 45 137 42 136
-4 0 -86 -66 -182 -146z"/>
<path d="M39300 42135 l0 -8925 5235 0 5235 0 0 8900 c0 7505 -2 8900 -14
8900 -7 0 -69 -11 -137 -25 -324 -66 -929 -172 -1364 -239 -2134 -329 -4080
-420 -5825 -275 -856 71 -1653 199 -2394 385 -183 46 -586 160 -665 188 -24 9
-50 16 -57 16 -12 0 -14 -1361 -14 -8925z"/>
<path d="M31050 29734 c-429 -24 -739 -67 -1077 -149 -718 -175 -1355 -503
-1899 -979 -255 -223 -569 -618 -791 -997 -436 -742 -676 -1607 -723 -2614
-16 -341 -8 -11725 8 -11890 54 -541 110 -861 218 -1238 181 -634 478 -1219
868 -1712 198 -250 347 -402 559 -572 635 -511 1372 -827 2218 -953 471 -70
1079 -79 1574 -24 1459 162 2595 869 3311 2059 349 581 582 1284 678 2045 50
395 49 356 53 2033 l4 1577 -1573 -2 -1573 -3 -6 -1535 c-5 -1365 -7 -1549
-22 -1659 -90 -657 -281 -972 -700 -1154 -384 -166 -1092 -194 -1553 -62 -582
168 -859 608 -914 1455 -8 116 -10 1873 -8 5905 4 5335 5 5749 21 5865 84 619
274 969 630 1160 148 79 308 130 532 167 159 26 690 26 850 0 439 -73 715
-218 885 -467 143 -210 235 -535 269 -953 7 -79 11 -525 11 -1173 l0 -1044
1575 0 1575 0 0 1058 c0 1039 -4 1231 -35 1537 -116 1147 -508 2112 -1164
2865 -555 638 -1294 1081 -2156 1295 -296 74 -588 120 -905 145 -142 11 -629
20 -740 14z"/>
<path d="M63475 29730 c-1363 -80 -2421 -557 -3198 -1440 -660 -751 -1053
-1709 -1171 -2860 -37 -354 -37 -397 -34 -6395 4 -6443 0 -5941 58 -6370 184
-1342 763 -2430 1681 -3158 463 -367 1030 -637 1652 -787 418 -101 854 -150
1352 -150 723 0 1325 101 1913 321 1212 454 2121 1441 2550 2770 167 515 256
1047 282 1684 16 385 8 11671 -8 11850 -68 737 -174 1225 -383 1755 -207 527
-498 995 -886 1422 -431 476 -1029 864 -1678 1088 -378 130 -791 215 -1245
255 -215 19 -683 27 -885 15z m780 -3274 c267 -44 473 -120 620 -228 337 -249
496 -638 535 -1308 8 -130 10 -1880 7 -5900 -3 -6120 0 -5749 -47 -6025 -96
-569 -346 -910 -781 -1063 -219 -77 -434 -107 -774 -107 -407 1 -667 51 -915
175 -277 139 -445 349 -559 695 -77 236 -107 441 -122 830 -16 429 -7 11363 9
11510 81 716 280 1084 691 1281 150 72 369 130 576 153 131 15 643 6 760 -13z"/>
<path d="M113935 29729 c-1037 -53 -1917 -353 -2629 -897 -601 -460 -1089
-1121 -1389 -1882 -205 -520 -323 -1056 -379 -1730 -18 -215 -18 -1398 0
-1600 85 -957 326 -1760 767 -2555 364 -658 910 -1326 1455 -1781 356 -298
926 -674 1580 -1044 345 -195 516 -294 722 -419 603 -363 746 -472 990 -750
405 -462 648 -938 758 -1491 55 -275 55 -279 55 -1320 0 -859 -2 -980 -18
-1098 -51 -392 -146 -672 -291 -860 -52 -68 -184 -196 -246 -239 -162 -110
-395 -187 -690 -225 -125 -16 -566 -16 -695 1 -214 27 -425 86 -570 159 -407
204 -614 607 -674 1307 -7 75 -11 662 -11 1578 l0 1457 -1575 0 -1576 0 4
-1577 c4 -1599 4 -1614 43 -1958 112 -992 437 -1851 965 -2546 399 -525 866
-912 1444 -1199 534 -264 1064 -406 1760 -472 213 -20 913 -17 1125 5 667 69
1189 212 1695 462 420 207 738 436 1070 769 353 354 599 697 825 1151 313 629
468 1217 551 2100 17 173 24 1990 9 2250 -73 1317 -473 2441 -1224 3445 -276
370 -700 826 -1005 1082 -379 318 -932 680 -1751 1146 -574 327 -879 511
-1115 676 -151 105 -230 173 -355 303 -515 539 -803 1144 -876 1843 -22 215
-15 1153 10 1330 90 629 282 967 658 1156 243 122 518 174 923 174 554 0 906
-103 1161 -342 218 -205 340 -490 407 -958 20 -138 21 -196 24 -1237 l4 -1093
1575 0 1575 0 -4 1123 c-4 1212 -5 1254 -63 1675 -179 1324 -753 2407 -1662
3138 -119 95 -398 284 -538 363 -767 432 -1751 635 -2819 580z"/>
<path d="M0 19150 l0 -10350 1573 2 1572 3 5 5149 5 5148 1269 -3521 1269
-3521 917 0 918 0 109 303 c60 166 631 1750 1269 3519 l1159 3217 5 -5147 5
-5147 1573 -3 1572 -2 0 10350 0 10350 -902 -2 -903 -3 -2400 -5727 c-1320
-3151 -2402 -5728 -2405 -5728 -3 0 -1085 2579 -2405 5730 l-2400 5730 -902 0
-903 0 0 -10350z"/>
<path d="M18499 29498 c-9 -30 -4005 -20685 -4002 -20691 6 -10 3191 -9 3197
2 3 4 132 732 286 1617 154 885 283 1621 286 1637 l6 27 1801 -2 1802 -3 287
-1640 c157 -902 287 -1641 287 -1642 3 -9 3201 -2 3201 7 0 5 -897 4645 -1994
10312 -1097 5667 -1998 10320 -2001 10341 l-7 37 -1574 0 c-866 0 -1574 -1
-1575 -2z m2206 -10467 c343 -2027 623 -3686 621 -3688 -1 -2 -567 -2 -1257
-1 l-1254 3 627 3695 c345 2032 628 3697 629 3700 3 10 18 -78 634 -3709z"/>
<path d="M37722 19153 l3 -10348 4148 -3 4147 -2 0 1630 0 1630 -2575 0 -2575
0 0 2865 0 2865 1775 0 1775 0 0 1630 0 1630 -1775 0 -1775 0 0 2600 0 2600
2575 0 2575 0 0 1625 0 1625 -4150 0 -4150 0 2 -10347z"/>
<path d="M47610 19150 l0 -10350 1573 2 1572 3 5 5237 5 5238 2389 -5218
c1314 -2869 2395 -5227 2403 -5240 l14 -22 912 2 912 3 3 10348 2 10347 -1575
0 -1575 0 -1 -5227 c0 -3517 -3 -5223 -10 -5213 -6 8 -1087 2360 -2403 5225
l-2393 5210 -917 3 -916 2 0 -10350z"/>
<path d="M70352 19153 l3 -10348 1573 -3 1572 -2 0 4495 0 4495 1790 0 1790 0
-2 1628 -3 1627 -1787 3 -1788 2 0 2600 0 2600 2575 0 2575 0 0 1625 0 1625
-4150 0 -4150 0 2 -10347z"/>
<path d="M79952 19153 l3 -10348 1573 -3 1572 -2 0 10350 0 10350 -1575 0
-1575 0 2 -10347z"/>
<path d="M85142 19153 l3 -10348 4148 -3 4147 -2 0 1630 0 1630 -2575 0 -2575
0 0 8720 0 8720 -1575 0 -1575 0 2 -10347z"/>
<path d="M94712 19153 l3 -10348 1572 -3 1573 -2 2 5155 3 5154 1270 -3524
1270 -3525 919 3 918 2 1268 3518 c698 1936 1271 3521 1274 3525 3 3 6 -2315
6 -5151 l0 -5157 1570 0 1570 0 0 10350 0 10350 -901 -2 -901 -3 -2401 -5728
c-1320 -3150 -2404 -5724 -2408 -5720 -4 4 -1086 2583 -2405 5731 l-2398 5722
-903 0 -903 0 2 -10347z"/>
<path d="M9067 7939 c-478 -36 -915 -245 -1168 -560 -186 -230 -292 -441 -364
-724 -75 -292 -70 -100 -70 -2685 0 -2176 1 -2322 18 -2430 157 -1006 839
-1573 1847 -1537 499 18 878 171 1180 477 124 126 214 253 300 425 80 161 130
305 165 479 46 232 50 296 50 926 l0 595 -590 0 -590 0 -5 -620 c-6 -595 -7
-623 -27 -697 -57 -202 -146 -292 -343 -345 -90 -24 -347 -24 -443 0 -241 60
-346 204 -377 516 -8 73 -10 787 -8 2291 4 2438 -2 2248 73 2407 88 189 239
263 532 263 343 -1 496 -98 565 -361 20 -79 22 -109 25 -546 l4 -463 596 0
595 0 -5 458 c-3 251 -10 495 -16 542 -43 344 -146 636 -312 887 -94 141 -285
333 -418 422 -327 217 -752 315 -1214 280z"/>
<path d="M25505 7940 c-519 -38 -932 -245 -1216 -610 -211 -271 -330 -579
-381 -990 -10 -84 -13 -567 -13 -2375 0 -2517 -4 -2373 65 -2653 129 -526 431
-921 867 -1133 356 -173 833 -224 1282 -138 701 135 1186 660 1315 1424 36
212 37 311 34 2595 -4 2443 0 2277 -58 2544 -109 501 -418 928 -826 1138 -303
156 -680 226 -1069 198z m378 -1235 c98 -20 169 -56 232 -116 90 -85 134 -199
154 -398 14 -135 15 -4294 1 -4435 -30 -306 -133 -449 -370 -513 -89 -24 -346
-24 -443 0 -192 48 -305 168 -354 374 -17 74 -18 189 -18 2363 0 2196 1 2288
19 2355 25 96 68 183 116 238 49 55 154 111 250 131 88 19 326 20 413 1z"/>
<path d="M40447 7853 c-4 -3 -7 -1752 -7 -3885 l0 -3878 595 0 595 0 2 1923 3
1924 434 -1206 c239 -663 452 -1254 474 -1314 l39 -107 345 2 345 3 474 1314
c260 722 476 1316 479 1319 3 3 5 -864 5 -1926 l0 -1932 590 0 590 0 0 3885 0
3885 -339 0 -338 0 -25 -57 c-14 -32 -418 -996 -898 -2143 -480 -1147 -876
-2089 -880 -2093 -4 -4 -187 423 -408 950 -221 527 -626 1494 -901 2148 l-498
1190 -335 3 c-184 1 -337 -1 -341 -5z"/>
<path d="M58490 3976 l0 -3886 590 0 590 0 2 1553 3 1552 440 6 c461 6 498 9
697 60 265 67 504 200 702 389 305 292 468 649 528 1155 18 155 18 1285 0
1440 -59 504 -237 882 -547 1167 -252 231 -533 363 -905 424 -94 16 -214 18
-1102 21 l-998 4 0 -3885z m1990 2640 c97 -23 202 -78 246 -130 49 -56 89
-139 116 -238 23 -82 23 -88 23 -718 0 -708 0 -713 -70 -858 -42 -89 -103
-150 -186 -190 -117 -55 -178 -62 -579 -62 l-360 0 0 1103 c0 607 3 1107 8
1111 4 5 169 6 367 4 299 -4 373 -8 435 -22z"/>
<path d="M75675 7848 c-3 -7 -340 -1745 -750 -3863 -409 -2117 -747 -3860
-750 -3872 l-5 -23 602 0 603 0 103 597 c57 329 106 606 109 616 4 16 45 17
679 17 371 0 674 -1 675 -2 0 -2 49 -277 108 -613 l107 -610 603 -3 603 -2 -5
22 c-10 42 -1497 7728 -1497 7738 0 16 -1179 14 -1185 -2z m824 -3903 c127
-748 233 -1370 236 -1382 l5 -23 -470 0 c-464 0 -470 0 -470 20 0 11 104 630
230 1375 127 745 230 1360 230 1367 0 6 2 9 4 7 3 -3 109 -616 235 -1364z"/>
<path d="M91120 3975 l0 -3885 590 0 590 0 2 1965 3 1965 900 -1965 900 -1965
343 0 342 0 0 3885 0 3885 -590 0 -590 0 -2 -1957 -3 -1958 -899 1958 -899
1957 -344 0 -343 0 0 -3885z"/>
<path d="M107464 7834 c4 -15 331 -1152 727 -2527 l719 -2500 0 -1358 0 -1359
595 0 595 0 0 1365 0 1364 725 2503 c399 1377 728 2511 731 2521 5 16 -29 17
-616 17 l-620 0 -10 -22 c-5 -13 -179 -601 -385 -1308 -207 -707 -388 -1323
-402 -1370 l-26 -85 -396 1390 -396 1390 -624 3 -623 2 6 -26z"/>
</g>
</svg>
