<?xml version="1.0" standalone="no"?>
<!DOCTYPE svg PUBLIC "-//W3C//DTD SVG 20010904//EN"
 "http://www.w3.org/TR/2001/REC-SVG-20010904/DTD/svg10.dtd">
<svg version="1.0" xmlns="http://www.w3.org/2000/svg"
 width="4802.000000pt" height="5830.000000pt" viewBox="0 0 4802.000000 5830.000000"
 preserveAspectRatio="xMidYMid meet">

<g transform="translate(0.000000,5830.000000) scale(0.100000,-0.100000)"
fill="#fff" stroke="none">
<path d="M30730 57470 c-928 -72 -1706 -413 -2295 -1004 -543 -546 -863 -1240
-961 -2081 -21 -181 -24 -659 -6 -835 70 -650 230 -1209 516 -1796 341 -699
801 -1313 1391 -1858 1046 -965 2388 -1550 3630 -1583 l200 -5 81 169 c85 174
186 340 298 490 36 48 64 88 62 90 -2 2 -34 -3 -72 -11 -167 -34 -408 -56
-620 -56 -898 0 -1843 333 -2649 936 -276 206 -613 521 -829 774 -617 723
-989 1547 -1098 2430 -17 140 -17 631 0 770 19 149 65 374 107 519 92 316 243
617 448 890 92 123 313 350 442 454 424 342 939 547 1555 618 158 18 565 16
742 -5 515 -59 988 -199 1463 -431 1491 -729 2564 -2199 2720 -3725 24 -225
16 -623 -14 -825 -68 -444 -211 -827 -441 -1175 -44 -66 -78 -120 -75 -120 2
0 36 7 76 15 282 60 588 76 906 49 l71 -7 35 69 c86 171 189 465 242 690 109
458 133 985 69 1489 -168 1312 -897 2618 -2001 3587 -946 830 -2068 1341
-3213 1463 -174 19 -619 27 -780 15z"/>
<path d="M42335 53533 c-1247 -31 -2475 -448 -3386 -1149 -245 -189 -565 -499
-740 -719 -446 -560 -690 -1119 -783 -1791 l-6 -41 139 -82 c227 -135 476
-333 640 -507 43 -46 80 -84 82 -84 2 0 4 91 5 203 1 132 7 243 18 322 89 627
367 1177 844 1667 644 662 1585 1106 2622 1237 549 70 1143 49 1679 -60 1200
-242 2200 -897 2732 -1790 180 -301 310 -660 366 -1009 28 -179 26 -627 -5
-805 -103 -598 -376 -1122 -827 -1584 -989 -1016 -2572 -1479 -4160 -1215
-925 153 -1775 572 -2370 1169 l-150 150 0 -295 c0 -259 -3 -314 -24 -449
l-23 -154 23 -19 c61 -47 355 -242 454 -300 641 -377 1402 -637 2175 -742 279
-38 425 -48 776 -53 365 -5 556 2 834 33 923 101 1835 422 2555 899 1174 777
1845 1909 1845 3115 0 2045 -1923 3768 -4490 4025 -156 15 -582 36 -675 33
-27 -1 -95 -3 -150 -5z"/>
<path d="M33870 53336 c-345 -119 -668 -247 -1072 -425 l-205 -90 -94 92 c-79
78 -109 100 -189 139 -133 66 -200 81 -345 82 -94 0 -137 -5 -198 -22 -136
-39 -248 -104 -344 -199 -180 -181 -259 -448 -207 -699 8 -42 14 -77 12 -78
-2 -2 -115 -67 -253 -146 -357 -204 -925 -563 -912 -577 14 -14 679 234 1057
395 119 51 220 92 224 92 5 0 43 -33 86 -74 90 -86 183 -144 295 -183 75 -26
90 -28 240 -27 135 0 170 3 223 21 l62 21 103 -131 c57 -73 541 -694 1077
-1382 535 -687 977 -1256 983 -1263 7 -9 -14 -37 -80 -105 -346 -358 -562
-797 -640 -1297 -13 -84 -18 -174 -18 -335 0 -235 13 -349 59 -540 14 -55 22
-103 18 -106 -4 -4 -559 -187 -1234 -408 l-1228 -401 -72 76 c-86 90 -160 149
-249 197 -138 76 -286 97 -391 57 l-52 -20 -206 203 c-260 256 -590 553 -590
530 0 -26 354 -494 564 -748 90 -108 115 -145 110 -160 -3 -11 -8 -61 -11
-111 -4 -71 -1 -108 15 -171 78 -310 321 -600 591 -706 99 -39 222 -48 305
-22 l55 17 133 -125 c155 -146 400 -358 406 -352 9 8 -254 370 -394 542 l-42
52 19 62 c26 83 24 191 -5 299 -12 47 -26 92 -30 101 -6 14 13 23 116 57 462
153 2266 741 2280 744 12 2 32 -28 77 -119 222 -442 583 -807 1024 -1032 656
-336 1432 -341 2098 -15 124 61 155 72 165 62 15 -16 1373 -2074 1380 -2092 3
-7 -24 -43 -60 -80 -67 -69 -129 -176 -142 -242 -3 -19 -10 -37 -15 -39 -5 -3
-84 -28 -176 -55 -324 -95 -748 -240 -725 -248 28 -9 486 49 770 99 l173 29
47 -48 c87 -89 219 -133 403 -133 123 0 197 11 314 48 227 72 430 215 514 365
18 32 36 60 40 63 4 2 109 33 232 69 264 76 461 139 654 208 147 53 181 70
124 63 -19 -3 -81 -9 -139 -15 -211 -22 -768 -106 -832 -126 -12 -3 -22 9 -41
49 -30 66 -85 120 -159 158 -83 42 -167 59 -295 59 -124 0 -222 -16 -338 -55
-75 -25 -79 -25 -95 -8 -25 26 -1390 2100 -1390 2110 0 5 39 43 86 83 426 366
704 875 790 1445 24 157 24 493 1 645 -9 57 -15 105 -14 106 1 1 376 117 832
258 457 140 1171 361 1587 489 l758 234 60 -73 c77 -94 152 -154 265 -209 115
-57 184 -75 315 -82 124 -7 236 12 343 57 l68 28 37 -60 c114 -185 287 -451
375 -578 137 -197 267 -373 273 -367 16 15 -230 622 -403 995 l-76 163 21 27
c141 176 196 323 196 527 0 137 -17 217 -70 333 -81 178 -218 315 -397 397
-115 52 -195 69 -341 69 l-129 1 -109 180 c-134 221 -271 434 -402 625 -134
195 -266 373 -272 367 -7 -6 73 -224 161 -444 78 -192 202 -473 304 -687 34
-71 61 -132 61 -136 0 -4 -25 -24 -55 -44 -72 -50 -182 -167 -228 -243 -67
-110 -117 -277 -117 -392 l0 -47 -1567 -484 c-863 -266 -1577 -485 -1589 -487
-17 -4 -24 4 -39 44 -37 99 -146 304 -223 419 -363 542 -922 900 -1580 1011
-165 28 -583 25 -747 -4 -153 -28 -344 -81 -465 -129 -102 -39 -288 -130 -353
-171 l-40 -25 -22 24 c-32 32 -2145 2747 -2151 2762 -3 7 11 39 31 71 76 127
111 274 101 425 -3 52 -9 109 -12 126 -6 30 -3 34 38 57 23 13 131 73 238 132
280 155 612 355 863 521 119 79 217 146 217 149 0 9 -16 5 -200 -59z m2338
-4287 c240 -26 434 -83 657 -194 528 -263 897 -742 1021 -1330 32 -149 44
-464 24 -622 -53 -430 -267 -851 -582 -1149 -622 -586 -1567 -693 -2293 -260
-326 195 -573 462 -741 801 -265 535 -267 1155 -5 1690 296 603 873 1001 1551
1068 81 8 278 6 368 -4z"/>
<path d="M36055 48450 c104 -205 58 -466 -114 -652 -179 -193 -414 -254 -616
-159 -156 73 -245 220 -247 409 l-1 84 -44 -44 c-113 -109 -245 -323 -307
-496 -51 -143 -70 -261 -70 -447 0 -127 4 -192 18 -255 60 -280 169 -489 357
-684 263 -274 599 -417 975 -417 384 0 725 145 986 420 179 187 293 408 350
674 30 144 30 380 0 524 -59 277 -181 503 -377 698 -114 114 -211 184 -352
254 -162 81 -388 141 -530 141 l-53 0 25 -50z"/>
<path d="M29622 48509 c-964 -52 -1752 -404 -2180 -974 -183 -244 -292 -509
-338 -817 -22 -153 -15 -445 15 -604 165 -877 853 -1733 1901 -2364 183 -110
596 -313 810 -398 696 -276 1378 -412 2066 -412 638 0 1177 114 1653 351 244
121 415 241 595 417 194 192 330 395 422 634 19 48 34 93 34 101 0 7 -37 34
-83 60 -123 68 -278 173 -395 266 -57 45 -105 81 -106 79 -2 -2 -11 -45 -20
-96 -53 -296 -187 -545 -415 -772 -157 -156 -271 -237 -481 -343 -792 -399
-1906 -388 -2970 30 -565 222 -1079 551 -1470 944 -386 386 -643 833 -732
1270 -31 152 -33 466 -4 599 41 192 124 386 227 535 523 757 1759 1045 3064
713 607 -154 1217 -446 1665 -797 47 -37 90 -70 95 -73 7 -4 9 74 6 229 -2
136 2 282 8 346 14 132 41 101 -219 257 -803 483 -1736 770 -2665 820 -208 11
-270 11 -483 -1z"/>
<path d="M38584 45540 c-84 -136 -186 -272 -300 -403 l-92 -104 267 0 c146 0
322 -6 391 -12 685 -65 1349 -272 1909 -595 696 -402 1185 -942 1380 -1525 57
-171 82 -323 82 -506 0 -180 -19 -299 -72 -460 -198 -595 -806 -1046 -1635
-1214 -286 -58 -384 -66 -774 -66 -311 1 -376 3 -525 23 -733 98 -1417 348
-1975 722 -687 461 -1126 1065 -1216 1672 -21 145 -14 380 15 513 35 161 104
332 185 460 18 28 35 55 38 60 4 7 -82 10 -250 10 -266 1 -397 13 -603 55
-112 24 -104 30 -149 -108 -130 -407 -111 -832 56 -1272 286 -747 999 -1453
1949 -1927 627 -314 1308 -510 2050 -590 228 -24 819 -24 1030 0 348 41 622
99 902 192 1196 398 1811 1289 1601 2320 -92 456 -386 960 -801 1377 -814 817
-2043 1359 -3360 1481 l-37 3 -66 -106z"/>
<path d="M34242 41790 c-128 -1871 -586 -4001 -1299 -6035 -413 -1180 -881
-2276 -1475 -3457 l-213 -423 -5 5035 -5 5035 -1835 3 -1835 2 -307 -707
c-168 -390 -590 -1365 -938 -2168 -674 -1557 -1413 -3262 -2326 -5372 -310
-717 -819 -1891 -1130 -2610 -964 -2227 -1544 -3567 -2131 -4923 -311 -718
-819 -1892 -1130 -2610 -311 -718 -849 -1960 -1195 -2760 -347 -800 -635
-1467 -640 -1482 -6 -16 -13 -28 -18 -28 -4 0 -183 406 -398 903 -214 496
-726 1678 -1137 2627 -411 949 -978 2258 -1260 2910 -851 1965 -1657 3828
-4500 10395 -824 1903 -1728 3991 -2009 4640 l-511 1180 -1837 3 -1838 2 0
-12961 0 -12961 -88 47 c-375 203 -751 533 -994 875 -365 513 -565 1112 -644
1935 -25 254 -25 921 -1 1235 66 845 206 1689 498 3004 44 197 78 361 76 363
-11 10 -458 -881 -636 -1266 -1141 -2474 -1551 -4480 -1240 -6066 256 -1310
1034 -2291 2294 -2895 742 -356 1628 -576 2680 -665 625 -52 1407 -52 2120 0
3233 240 7046 1450 10308 3272 2985 1666 5806 3941 8198 6609 1761 1965 3270
4124 4436 6349 1840 3508 2860 7162 3012 10780 17 404 23 1088 12 1480 -12
451 -32 885 -41 885 -3 0 -11 -81 -18 -180z m-23237 -21230 c163 -470 502
-1442 752 -2160 723 -2075 743 -2133 740 -2136 -21 -22 -1723 -404 -1798 -404
-5 0 -9 1171 -9 2787 0 1541 4 2783 9 2778 4 -6 142 -395 306 -865z"/>
<path d="M31179 26608 c-1083 -1956 -2565 -4004 -4188 -5788 -533 -586 -1432
-1499 -1929 -1960 l-232 -215 0 -9222 0 -9223 3210 0 3210 0 0 13260 c0 7293
-2 13260 -4 13260 -2 0 -32 -51 -67 -112z"/>
<path d="M23309 17323 c-494 -408 -1212 -957 -1789 -1369 -2385 -1701 -4779
-2963 -7305 -3849 -121 -43 -223 -80 -227 -84 -3 -3 25 -94 62 -201 38 -107
188 -537 333 -955 219 -628 1444 -4139 1494 -4282 l15 -43 1867 0 1868 0 156
447 c85 247 361 1038 612 1758 251 721 645 1850 875 2510 230 660 676 1938
990 2840 314 902 691 1982 836 2400 146 418 276 791 290 829 13 38 23 70 21
73 -2 2 -46 -32 -98 -74z"/>
<path d="M4270 5675 l0 -5475 3210 0 3210 0 0 5461 0 5462 -32 -6 c-18 -3
-154 -28 -303 -56 -2328 -430 -4421 -411 -5947 53 -65 20 -122 36 -128 36 -7
0 -10 -1791 -10 -5475z"/>
</g>
</svg>
