<?xml version="1.0" standalone="no"?>
<!DOCTYPE svg PUBLIC "-//W3C//DTD SVG 20010904//EN"
 "http://www.w3.org/TR/2001/REC-SVG-20010904/DTD/svg10.dtd">
<svg version="1.0" xmlns="http://www.w3.org/2000/svg"
 width="10350.000000pt" height="2562.000000pt" viewBox="0 0 10350.000000 2562.000000"
 preserveAspectRatio="xMidYMid meet">

<g transform="translate(0.000000,2562.000000) scale(0.100000,-0.100000)"
fill="#fff" stroke="none">
<path d="M26580 25595 c-666 -133 -1246 -409 -1755 -834 -246 -205 -529 -555
-737 -911 -374 -636 -572 -1358 -618 -2240 -14 -267 -14 -9783 0 -10050 51
-983 293 -1767 761 -2460 307 -456 630 -764 1090 -1040 495 -298 1055 -477
1704 -547 224 -24 822 -24 1052 0 1181 123 2078 612 2721 1482 406 550 675
1255 776 2030 49 371 49 377 53 1783 l4 1332 -1355 0 -1355 0 -4 -1332 c-3
-1458 -2 -1411 -64 -1673 -84 -355 -226 -560 -483 -694 -215 -112 -555 -171
-910 -158 -739 28 -1097 297 -1234 927 -54 248 -50 -172 -53 5290 -3 3611 -1
5062 7 5155 21 249 86 507 167 669 153 303 389 463 796 538 109 21 153 23 407
23 254 0 299 -3 415 -24 590 -105 838 -386 932 -1053 15 -107 18 -249 23
-1093 l5 -970 1353 -3 1352 -2 0 847 c0 1001 -10 1254 -66 1638 -140 965 -529
1780 -1144 2395 -494 495 -1168 839 -1915 979 -106 20 -141 21 -960 20 -845
-1 -851 -1 -965 -24z"/>
<path d="M54500 25591 c-472 -98 -835 -236 -1215 -462 -589 -350 -1066 -879
-1390 -1540 -208 -425 -354 -923 -420 -1429 -53 -407 -49 -15 -53 -5440 -3
-5107 -3 -5185 34 -5540 96 -929 395 -1694 917 -2344 113 -141 410 -434 547
-540 584 -451 1232 -698 2054 -783 234 -24 828 -24 1061 0 1056 111 1883 511
2499 1207 356 403 608 846 786 1380 135 405 200 738 252 1290 16 172 24 9726
8 10135 -16 436 -53 743 -130 1092 -205 921 -678 1712 -1342 2244 -459 367
-1008 615 -1628 735 l-125 24 -860 -1 -860 0 -135 -28z m1423 -2730 c198 -36
359 -97 486 -184 76 -51 203 -188 255 -276 111 -185 183 -455 207 -776 16
-219 7 -10104 -9 -10210 -66 -421 -159 -643 -349 -826 -206 -201 -476 -290
-923 -306 -445 -15 -812 74 -1034 252 -211 168 -347 451 -400 831 -36 260 -37
386 -33 5354 3 4514 4 4885 20 5004 57 431 187 730 391 899 162 133 366 213
646 251 163 23 587 15 743 -13z"/>
<path d="M97900 25595 c-1078 -216 -1912 -794 -2460 -1706 -347 -576 -540
-1215 -615 -2029 -22 -231 -31 -955 -16 -1238 43 -811 216 -1485 557 -2172
274 -550 607 -1012 1054 -1461 271 -272 478 -437 880 -704 292 -194 493 -314
1025 -615 305 -173 710 -422 880 -543 276 -195 600 -589 781 -949 139 -278
234 -602 263 -902 14 -143 15 -1622 1 -1771 -28 -301 -98 -554 -201 -728 -54
-90 -192 -234 -285 -296 -128 -86 -296 -143 -524 -178 -165 -25 -540 -25 -705
1 -218 33 -397 96 -533 185 -260 172 -400 445 -473 926 -9 59 -14 428 -16
1418 l-4 1337 -1355 0 -1355 0 4 -1342 c3 -887 8 -1382 15 -1458 45 -462 98
-764 187 -1077 133 -463 346 -909 606 -1269 642 -887 1548 -1387 2742 -1511
228 -24 836 -24 1064 0 1167 122 2060 602 2699 1452 513 681 787 1520 844
2580 13 243 13 1503 0 1740 -69 1252 -474 2292 -1257 3230 -171 205 -465 504
-653 665 -289 250 -879 636 -1525 1000 -726 409 -1050 624 -1237 818 -426 444
-665 913 -755 1482 -16 100 -18 182 -18 645 0 583 5 647 64 891 123 502 388
752 897 845 170 31 537 38 725 14 311 -39 515 -122 682 -275 184 -169 288
-401 353 -790 16 -94 18 -207 21 -1072 l4 -968 1355 0 1356 0 -5 958 c-4 1014
-8 1113 -58 1462 -162 1140 -654 2062 -1429 2679 -451 360 -1023 615 -1635
730 -106 20 -140 21 -970 20 -855 -1 -861 -1 -975 -24z"/>
<path d="M630 16585 l0 -8895 1353 2 1352 3 2 4420 c2 2431 3 4425 3 4430 1 6
23 -51 50 -125 26 -74 125 -349 220 -610 94 -261 205 -567 245 -680 40 -113
110 -306 155 -430 45 -124 115 -317 155 -430 40 -113 110 -306 155 -430 45
-124 115 -317 155 -430 40 -113 151 -419 245 -680 94 -261 205 -567 245 -680
40 -113 110 -306 155 -430 45 -124 119 -331 166 -460 46 -129 119 -332 162
-450 l77 -215 789 0 789 0 72 200 c39 110 138 385 220 610 320 889 358 995
405 1125 27 74 96 266 153 425 58 160 168 466 245 680 77 215 218 604 312 865
94 261 205 567 245 680 41 113 107 297 148 410 41 113 143 397 228 632 l154
428 5 -4428 5 -4427 1350 0 1350 0 3 8893 2 8892 -777 -2 -777 -3 -398 -950
c-219 -522 -434 -1035 -478 -1140 -44 -104 -110 -264 -148 -355 -576 -1372
-1979 -4720 -2023 -4825 -472 -1133 -1078 -2567 -1085 -2567 -7 0 -412 957
-1093 2587 -132 314 -275 656 -1071 2555 -950 2266 -849 2026 -1484 3540
l-484 1155 -776 3 -776 2 0 -8895z"/>
<path d="M16535 25468 c-2 -7 -306 -1574 -675 -3483 -369 -1908 -677 -3501
-685 -3540 -8 -38 -33 -167 -55 -285 -54 -280 -96 -502 -120 -620 -10 -52 -39
-201 -64 -330 -49 -255 -1075 -5556 -1546 -7984 -159 -825 -290 -1508 -290
-1518 0 -17 53 -18 1372 -16 l1373 3 32 180 c17 99 52 299 78 445 25 146 57
328 70 405 67 384 87 496 119 680 19 110 65 371 101 580 36 209 72 412 79 450
l12 70 1552 3 1552 2 5 -22 c3 -13 28 -153 55 -313 92 -528 131 -748 160 -915
16 -91 45 -259 65 -375 20 -115 45 -257 55 -315 10 -58 42 -238 70 -400 28
-162 59 -335 68 -385 l17 -90 1373 -3 c1194 -2 1372 0 1372 12 0 8 -621 3223
-1380 7143 -759 3920 -1399 7223 -1421 7338 -22 116 -46 242 -54 280 -8 39
-35 178 -60 310 -25 132 -52 272 -60 310 -8 39 -34 176 -59 305 -156 811 -398
2058 -402 2073 -5 16 -78 17 -1355 17 -1071 0 -1350 -3 -1354 -12z m1398
-6025 c53 -315 162 -958 192 -1133 30 -172 188 -1108 280 -1650 36 -212 76
-450 90 -530 14 -80 54 -318 90 -530 36 -212 79 -464 95 -560 17 -96 57 -332
89 -525 33 -192 91 -537 130 -766 39 -229 71 -421 71 -427 0 -9 -265 -12
-1083 -12 l-1083 0 82 483 c45 265 96 563 113 662 33 191 103 603 250 1475
144 851 312 1840 547 3223 49 284 91 517 94 517 3 0 22 -102 43 -227z"/>
<path d="M33070 16585 l0 -8895 3565 0 3565 0 0 1395 0 1395 -2212 2 -2213 3
-3 2468 -2 2467 1525 0 1525 0 0 1395 0 1395 -1525 0 -1525 0 0 2240 0 2240
2215 0 2215 0 0 1395 0 1395 -3565 0 -3565 0 0 -8895z"/>
<path d="M41570 16585 l0 -8895 1350 0 1350 0 0 4507 c0 2726 4 4503 9 4497 5
-5 134 -281 286 -614 152 -333 375 -819 495 -1080 120 -261 354 -772 520
-1135 166 -363 387 -844 490 -1070 234 -509 466 -1017 710 -1550 201 -439 513
-1120 825 -1800 228 -497 385 -842 625 -1365 l176 -385 787 -3 787 -2 0 8895
0 8895 -1350 0 -1350 0 -2 -4497 -3 -4498 -21 45 c-46 96 -692 1502 -1474
3205 -353 769 -566 1232 -1075 2340 -200 435 -528 1150 -730 1590 -203 440
-472 1027 -600 1305 l-232 505 -786 3 -787 2 0 -8895z"/>
<path d="M61130 16585 l0 -8895 1350 0 1350 0 0 3865 0 3865 1535 0 1535 0 0
1395 0 1395 -1535 0 -1535 0 0 2240 0 2240 2215 0 2215 0 0 1395 0 1395 -3565
0 -3565 0 0 -8895z"/>
<path d="M69380 16585 l0 -8895 1350 0 1350 0 0 8895 0 8895 -1350 0 -1350 0
0 -8895z"/>
<path d="M73840 16585 l0 -8895 3565 0 3565 0 0 1395 0 1395 -2210 0 -2210 0
0 7500 0 7500 -1355 0 -1355 0 0 -8895z"/>
<path d="M82070 16585 l0 -8895 1350 0 1350 0 0 4430 c0 2437 4 4430 8 4430 4
0 13 -17 19 -37 6 -21 49 -144 96 -273 100 -274 396 -1093 502 -1390 40 -113
110 -306 155 -430 45 -124 115 -317 155 -430 40 -113 110 -306 155 -430 45
-124 115 -317 155 -430 40 -113 121 -338 180 -500 59 -162 128 -356 155 -430
27 -74 96 -268 155 -430 59 -162 128 -356 155 -430 27 -74 97 -268 155 -430
59 -162 117 -323 128 -358 l21 -62 790 2 789 3 23 65 c12 36 70 198 129 360
59 162 128 356 155 430 27 74 96 268 155 430 59 162 140 387 180 500 40 113
110 306 155 430 45 124 115 317 155 430 40 113 151 419 245 680 94 261 234
648 310 860 76 212 216 599 310 860 94 261 215 596 268 744 l97 269 5 -4429 5
-4429 1347 -3 1348 -2 2 8895 3 8895 -775 -2 -774 -3 -104 -245 c-56 -135
-138 -330 -182 -435 -44 -104 -111 -266 -151 -360 -39 -93 -111 -264 -159
-380 -48 -115 -474 -1130 -945 -2255 -472 -1125 -884 -2108 -916 -2185 -575
-1380 -1670 -3980 -1676 -3979 -7 2 -113 248 -343 799 -44 105 -111 267 -151
360 -39 94 -111 265 -159 380 -48 116 -462 1103 -920 2195 -836 1995 -933
2226 -1060 2530 -38 91 -391 932 -784 1870 l-714 1705 -776 3 -776 2 0 -8895z"/>
<path d="M8410 6944 c-343 -40 -599 -138 -825 -318 -268 -214 -465 -600 -520
-1023 -22 -171 -23 -3965 0 -4135 46 -350 177 -654 380 -886 193 -219 482
-374 811 -433 168 -31 477 -31 645 -1 313 57 559 180 759 381 257 259 405 609
440 1035 5 71 10 338 10 592 l0 464 -504 0 -504 0 -5 -512 c-3 -302 -9 -536
-16 -568 -30 -153 -82 -244 -171 -298 -81 -48 -141 -63 -281 -69 -324 -15
-482 82 -547 334 -16 63 -17 200 -17 2028 0 1816 1 1965 17 2026 64 248 198
338 499 339 254 0 391 -67 459 -225 45 -103 51 -169 57 -572 l5 -383 504 0
504 0 0 329 c0 373 -10 534 -45 707 -118 586 -490 1000 -1019 1135 -149 38
-240 50 -421 54 -99 2 -196 1 -215 -1z"/>
<path d="M22540 6943 c-474 -46 -819 -233 -1064 -576 -155 -217 -251 -487
-286 -802 -8 -71 -10 -683 -8 -2090 l3 -1990 22 -116 c36 -186 78 -313 153
-464 208 -421 556 -676 1029 -757 176 -30 474 -30 642 0 189 34 368 98 503
179 317 190 540 502 641 898 62 246 60 151 60 2320 0 1845 -1 1988 -18 2097
-114 754 -595 1230 -1312 1298 -103 9 -285 11 -365 3z m359 -1058 c83 -20 152
-58 201 -111 51 -56 76 -106 103 -211 l22 -88 0 -1940 0 -1940 -22 -88 c-27
-106 -52 -155 -105 -213 -77 -83 -204 -124 -388 -124 -295 0 -429 92 -497 341
-17 60 -18 177 -18 2024 0 1834 1 1964 17 2028 48 185 139 281 306 321 79 20
300 20 381 1z"/>
<path d="M35410 3535 l0 -3335 505 0 505 0 0 1657 c0 924 4 1653 9 1648 4 -6
26 -62 49 -125 37 -106 112 -312 538 -1495 86 -236 172 -476 192 -532 l36
-103 296 0 296 0 36 102 c34 96 135 376 535 1483 85 237 176 489 201 560 l47
130 3 -1662 2 -1663 505 0 505 0 0 3335 0 3335 -289 0 -289 0 -22 -52 c-12
-28 -326 -776 -697 -1662 -372 -886 -707 -1685 -745 -1776 -38 -91 -72 -173
-75 -182 -3 -10 -8 -18 -12 -18 -5 0 -223 518 -842 1995 -229 548 -670 1598
-689 1643 l-22 52 -289 0 -289 0 0 -3335z"/>
<path d="M50920 3535 l0 -3335 510 0 510 0 0 1335 0 1335 318 0 c174 0 357 5
407 10 374 43 642 166 880 405 194 193 309 401 379 683 53 214 66 384 66 904
0 434 -11 634 -45 804 -63 316 -180 545 -382 754 -207 215 -434 340 -737 407
l-121 27 -892 3 -893 4 0 -3336z m1734 2271 c173 -49 259 -151 303 -356 16
-75 18 -141 18 -580 0 -440 -2 -504 -18 -580 -44 -208 -129 -306 -301 -350
-71 -18 -111 -20 -398 -20 l-318 0 0 956 0 956 328 -4 c267 -4 338 -8 386 -22z"/>
<path d="M65697 6848 c-3 -13 -222 -1141 -486 -2508 -265 -1367 -494 -2552
-511 -2635 -16 -82 -47 -247 -70 -365 -22 -118 -49 -258 -60 -310 -11 -52 -38
-192 -60 -310 -23 -118 -54 -282 -70 -363 -17 -81 -30 -150 -30 -153 0 -2 232
-4 515 -4 283 0 515 2 515 4 0 2 13 77 29 167 16 90 48 274 72 409 23 135 51
297 63 360 l21 115 582 3 583 2 5 -22 c2 -13 21 -117 41 -233 19 -116 51 -295
69 -400 18 -104 41 -238 51 -297 l18 -108 516 0 516 0 -483 2492 c-265 1371
-556 2872 -645 3335 l-163 843 -506 0 -507 0 -5 -22z m603 -2678 c114 -679
265 -1570 293 -1728 13 -73 21 -134 19 -137 -8 -8 -812 -6 -812 2 0 3 30 180
66 392 36 212 94 557 130 766 35 209 75 443 88 520 14 77 46 268 72 424 29
173 51 276 55 265 4 -11 44 -237 89 -504z"/>
<path d="M78980 3535 l0 -3335 505 0 505 0 0 1685 c0 927 3 1685 8 1685 4 0
89 -179 189 -398 100 -218 320 -698 488 -1067 254 -554 701 -1529 840 -1832
l34 -73 295 0 296 0 0 3335 0 3335 -510 0 -510 0 0 -1677 c0 -922 -1 -1677 -3
-1679 -1 -2 -88 182 -192 409 -104 227 -333 727 -510 1112 -177 385 -379 824
-448 975 -69 151 -186 406 -260 565 l-133 290 -297 3 -297 2 0 -3335z"/>
<path d="M93035 6858 c2 -7 51 -177 109 -378 99 -345 145 -506 401 -1395 59
-203 149 -516 200 -695 109 -380 237 -825 411 -1427 l124 -431 0 -1166 0
-1166 510 0 510 0 0 1176 0 1175 76 262 c41 144 109 379 151 522 41 143 97
334 123 425 26 91 73 251 103 355 31 105 90 309 132 455 42 146 92 317 110
380 18 63 54 186 79 273 25 86 67 228 92 315 25 86 61 209 79 272 18 63 72
250 120 415 48 165 109 375 136 467 27 92 49 170 49 173 0 3 -240 5 -533 5
l-532 0 -180 -612 c-98 -337 -196 -671 -217 -743 -21 -71 -60 -204 -87 -295
-178 -610 -215 -730 -223 -730 -4 0 -8 6 -8 14 0 8 -151 542 -335 1186 -184
645 -335 1174 -335 1176 0 2 -241 4 -535 4 -423 0 -533 -3 -530 -12z"/>
</g>
</svg>
